<?xml version="1.0" encoding="UTF-8" standalone="no"?>
<!-- Created with Inkscape (http://www.inkscape.org/) -->

<svg
   xmlns:dc="http://purl.org/dc/elements/1.1/"
   xmlns:cc="http://creativecommons.org/ns#"
   xmlns:rdf="http://www.w3.org/1999/02/22-rdf-syntax-ns#"
   xmlns:svg="http://www.w3.org/2000/svg"
   xmlns="http://www.w3.org/2000/svg"
   xmlns:sodipodi="http://sodipodi.sourceforge.net/DTD/sodipodi-0.dtd"
   xmlns:inkscape="http://www.inkscape.org/namespaces/inkscape"
   id="svg3039"
   version="1.1"
   inkscape:version="0.48.2 r9819"
   width="625"
   height="450"
   sodipodi:docname="phrollicicon.svg">
  <metadata
     id="metadata3045">
    <rdf:RDF>
      <cc:Work
         rdf:about="">
        <dc:format>image/svg+xml</dc:format>
        <dc:type
           rdf:resource="http://purl.org/dc/dcmitype/StillImage" />
        <dc:title />
      </cc:Work>
    </rdf:RDF>
  </metadata>
  <defs
     id="defs3043" />
  <sodipodi:namedview
     pagecolor="#ffffff"
     bordercolor="#666666"
     borderopacity="1"
     objecttolerance="10"
     gridtolerance="10"
     guidetolerance="10"
     inkscape:pageopacity="0"
     inkscape:pageshadow="2"
     inkscape:window-width="1920"
     inkscape:window-height="880"
     id="namedview3041"
     showgrid="false"
     inkscape:zoom="0.13"
     inkscape:cx="-29.26365"
     inkscape:cy="225"
     inkscape:window-x="13"
     inkscape:window-y="59"
     inkscape:window-maximized="0"
     inkscape:current-layer="svg3039"
     showborder="false" />
  <path
     style="opacity:0.9956896;fill:#ff7f2a;stroke:#000000;stroke-width:0;stroke-linecap:butt;stroke-linejoin:miter;stroke-miterlimit:4;stroke-opacity:1;stroke-dasharray:none;stroke-dashoffset:0"
     d="m 484.35737,221.60632 c -6.40869,2.78638 -18.73909,-11.38319 -28.05039,-14.92042 l -18.5014,31.03449 -20.2917,37.59947 -2.3873,18.50132 c 11.6805,1.87479 25.0485,0.98308 38.1963,10.74271 20.6354,17.59702 37.24379,27.14004 54.90719,38.7931 l 16.114,11.33952 7.7586,8.95226 -10.1459,2.98408 c -8.2122,-5.87589 -11.6746,-6.05207 -11.9363,-2.38727 l -7.7586,-1.79045 -5.3714,-8.95225 -22.08219,-12.53316 -28.0504,-16.71087 -1.1936,2.38727 -14.9205,-3.58091 -28.6472,-4.17772 -10.1459,2.38727 -5.9681,0.59682 -2.3873,-2.98409 c -104.6998,76.50084 -259.9606,97.62828 -270.9549,-59.68169 46.9784,31.71283 82.0353,56.83319 193.3687,-6.565 0,0 27.6041,-18.50655 42.9708,-24.46949 10.0785,-3.91086 31.6313,-7.1618 31.6313,-7.1618 21.679,-22.58092 33.5137,-47.62291 49.5358,-71.61804 l 4.1777,-3.5809 c -4.3344,-6.55304 -5.8849,-11.52241 -0.5968,-19.69496 l 6.565,-10.1459 c 0,0 3.253,6.60729 4.1777,10.1459 1.6721,6.39817 2.3873,19.69496 2.3873,19.69496 3.5809,-1.92796 7.1618,-2.37486 10.7427,3.5809 -4.2932,-11.33952 -4.8879,-21.41615 -14.9204,-34.01857 -15.4478,-19.404806 -28.4483,-30.358566 -42.374,-43.567636 -5.0283,-7.84916 -4.6968,-14.62635 -1.7905,-20.88859 3.8333,16.05581 5.9405,11.56978 19.0982,24.46949 l 30.4376,29.840846 c 0,0 -21.4528,-23.271726 -26.2599,-38.196286 -1.6468,-5.11269 -1.1936,-16.11405 -1.1936,-16.11405 2.7111,15.70685 11.304,21.61082 18.5013,29.84084 l -9.5491,-14.92042 c 14.2007,20.81262 36.8727,33.15386 41.1804,63.859416 l 14.92039,35.80902 c -2.4132,10.17183 0.2832,15.23408 4.1777,19.09814 0,0 12.5467,9.59951 13.7268,16.71088 0.8348,5.03041 -1.8594,10.62654 -5.3713,14.32361 -3.4363,3.61743 -13.7268,5.96816 -13.7268,5.96816 z"
     id="path3051"
     inkscape:connector-curvature="0"
     sodipodi:nodetypes="scccccccccccccccccccccsscccscsccsccscsccccccsss" />
</svg>
