<?xml version="1.0" encoding="UTF-8" standalone="no"?>
<!-- Created with Inkscape (http://www.inkscape.org/) -->

<svg
   xmlns:dc="http://purl.org/dc/elements/1.1/"
   xmlns:cc="http://creativecommons.org/ns#"
   xmlns:rdf="http://www.w3.org/1999/02/22-rdf-syntax-ns#"
   xmlns:svg="http://www.w3.org/2000/svg"
   xmlns="http://www.w3.org/2000/svg"
   xmlns:sodipodi="http://sodipodi.sourceforge.net/DTD/sodipodi-0.dtd"
   xmlns:inkscape="http://www.inkscape.org/namespaces/inkscape"
   id="svg3039"
   version="1.1"
   inkscape:version="0.48.2 r9819"
   width="625"
   height="450"
   sodipodi:docname="gazelle.jpg">
  <metadata
     id="metadata3045">
    <rdf:RDF>
      <cc:Work
         rdf:about="">
        <dc:format>image/svg+xml</dc:format>
        <dc:type
           rdf:resource="http://purl.org/dc/dcmitype/StillImage" />
        <dc:title></dc:title>
      </cc:Work>
    </rdf:RDF>
  </metadata>
  <defs
     id="defs3043" />
  <sodipodi:namedview
     pagecolor="#ffffff"
     bordercolor="#666666"
     borderopacity="1"
     objecttolerance="10"
     gridtolerance="10"
     guidetolerance="10"
     inkscape:pageopacity="0"
     inkscape:pageshadow="2"
     inkscape:window-width="1924"
     inkscape:window-height="880"
     id="namedview3041"
     showgrid="false"
     inkscape:zoom="1.6755556"
     inkscape:cx="-29.26365"
     inkscape:cy="225"
     inkscape:window-x="0"
     inkscape:window-y="0"
     inkscape:window-maximized="0"
     inkscape:current-layer="svg3039" />
  <path
     style="fill:#ff7f2a;stroke:#000000;stroke-width:1px;stroke-linecap:butt;stroke-linejoin:miter;stroke-opacity:1"
     d="m -148.60743,208.88593 c -6.40869,2.78638 -18.73904,-11.38319 -28.0504,-14.92042 L -195.15916,225 l -20.29177,37.59947 -2.38727,18.50132 c 11.68054,1.87479 25.04848,0.98308 38.19629,10.74271 20.63538,17.59702 37.24376,27.14004 54.90716,38.7931 l 16.11406,11.33952 7.75862,8.95226 -10.14589,2.98408 c -8.21223,-5.87589 -11.67469,-6.05207 -11.93634,-2.38727 l -7.75862,-1.79045 -5.37135,-8.95225 -22.08223,-12.53316 -28.0504,-16.71087 -1.19363,2.38727 -14.92043,-3.58091 -28.64721,-4.17772 -10.14589,2.38727 -5.96817,0.59682 -2.38727,-2.98409 c -104.69976,76.50084 -259.96061,97.62828 -270.95491,-59.68169 46.97842,31.71283 82.03531,56.83319 193.36871,-6.565 0,0 27.60405,-18.50655 42.97082,-24.46949 10.07845,-3.91086 31.6313,-7.1618 31.6313,-7.1618 21.67897,-22.58092 33.51366,-47.62291 49.5358,-71.61804 l 4.17772,-3.5809 c -4.33441,-6.55304 -5.88493,-11.52241 -0.59681,-19.69496 l 6.56498,-10.14589 c 0,0 3.25297,6.60728 4.17772,10.14589 1.67205,6.39817 2.38727,19.69496 2.38727,19.69496 3.5809,-1.92796 7.16181,-2.37486 10.74271,3.5809 -4.29321,-11.33952 -4.88789,-21.41615 -14.92043,-34.01856 -15.44781,-19.404811 -28.44827,-30.358569 -42.374,-43.56764 -5.0283,-7.84916 -4.69675,-14.626351 -1.79046,-20.888594 3.83325,16.055814 5.94045,11.569789 19.09815,24.469496 l 30.43766,29.840849 c 0,0 -21.45286,-23.271726 -26.25995,-38.196287 -1.64675,-5.112692 -1.19363,-16.114058 -1.19363,-16.114058 2.71117,15.706852 11.30407,21.610825 18.50133,29.840849 l -9.54907,-14.920424 c 14.20064,20.81262 36.87266,33.153859 41.18036,63.859409 l 14.92044,35.80902 c -2.41322,10.17183 0.28315,15.23408 4.17771,19.09814 0,0 12.54667,9.59951 13.72679,16.71088 0.83479,5.03041 -1.85943,10.62654 -5.37135,14.32361 -3.43627,3.61743 -13.72679,5.96816 -13.72679,5.96816 z"
     id="path3051"
     inkscape:connector-curvature="0"
     sodipodi:nodetypes="scccccccccccccccccccccsscccscsccsccscsccccccsss" />
</svg>
